<?xml version="1.0" encoding="utf-8"?>
<!-- Generator: Adobe Illustrator 16.0.4, SVG Export Plug-In . SVG Version: 6.00 Build 0)  -->
<!DOCTYPE svg PUBLIC "-//W3C//DTD SVG 1.1//EN" "http://www.w3.org/Graphics/SVG/1.1/DTD/svg11.dtd">
<svg version="1.1" id="Warstwa_1" xmlns="http://www.w3.org/2000/svg" xmlns:xlink="http://www.w3.org/1999/xlink" x="0px" y="0px"
	 width="725.67px" height="725.67px" viewBox="0 0 725.67 725.67" enable-background="new 0 0 725.67 725.67" xml:space="preserve">
<path fill="#010101" d="M406.679,263.7c82.146,0,160.167,8.988,230.715,18.847c-2.835-8.502-6.009-20.309-9.537-28.41
	c-68.452-12.291-145.794-19.242-227.737-19.242c-88.262,0-171.216,8.046-243.444,22.166c-3.617,8.553-6.849,17.347-9.696,26.335
	C224.874,270.813,313.128,263.7,406.679,263.7z"/>
<path fill="#FFFFFF" d="M406.679,258.69c82.146,0,154.234,9.63,224.782,19.488c-2.835-8.501-1.613-5.079-5.139-13.18
	c-68.452-12.291-144.26-19.146-226.203-19.146c-88.262,0-171.216,8.048-243.444,22.167c-3.617,8.555-2.676,4.698-5.526,13.687
	C229.044,269.124,313.128,258.69,406.679,258.69z"/>
<polyline fill="#352117" points="145.146,167.764 145.146,90.532 216.534,118.501 "/>
<polyline fill="#352117" points="580.104,171.614 590.554,95.096 516.037,113.145 "/>
<ellipse fill="#4A4043" cx="363.069" cy="362.201" rx="270.524" ry="292.963"/>
<path fill="#352117" d="M648.623,362.387c0,167.23-127.661,302.796-285.137,302.796S78.35,529.617,78.35,362.387
	c0-167.233,127.661-302.801,285.136-302.801S648.623,195.154,648.623,362.387z"/>
<path fill="#6C4D3D" d="M619.403,362.745c0,157.696-115.701,285.528-258.422,285.528c-142.721,0-258.419-127.832-258.419-285.528
	c0-157.691,115.698-285.529,258.419-285.529C503.702,77.216,619.403,205.054,619.403,362.745z"/>
<path fill="#5E4230" d="M360.981,79.721c-142.721,0-258.419,127.836-258.419,285.529c0,23.827,2.658,46.965,7.637,69.09
	C153.7,538.448,249.007,610.704,359.601,610.704c115.674,0,214.628-79.04,255.071-190.896c3.091-17.663,4.731-35.9,4.731-54.559
	C619.403,207.557,503.702,79.721,360.981,79.721z"/>
<path fill="#261610" d="M393.83,80.042c91.91,75.961,151.32,196.464,151.32,332.148c0,67.072-14.535,130.417-40.312,186.524
	c69.589-51.089,115.393-137.922,115.393-236.458C620.231,217.629,521.57,98.206,393.83,80.042z"/>
<path fill="#FBEAB5" d="M125.37,246.194c-15.335,36.503-22.184,77.104-22.184,119.996c0,14.52,0.99,28.786,2.884,42.725
	c76.432,16.826,166.39,26.553,262.717,26.553c90.182,0,174.76-8.538,247.907-23.431c2.179-14.929,3.33-30.239,3.33-45.847
	c0-44.038-9.03-85.744-25.147-122.993c-67.957-12.292-144.737-19.243-226.09-19.243C281.159,223.955,197.075,232.077,125.37,246.194
	z"/>
<path opacity="0.6" fill="#F0A830" d="M484.866,356.25c-40.269-62.622-75.979,0-75.979,0s16.808-17.638,37.227-17.638
	C466.534,338.612,484.866,356.25,484.866,356.25z"/>
<path fill="#5E4230" d="M488.938,354.992c-1.732,0-3.455-0.715-4.692-2.114c-12.197-13.807-25.007-20.636-37.751-20.229
	c-20.755,0.616-35.968,19.74-36.12,19.933c-2.127,2.719-6.049,3.205-8.777,1.083c-2.719-2.121-3.213-6.039-1.1-8.764
	c0.758-0.976,18.846-23.902,45.518-24.754c16.755-0.559,32.799,7.688,47.609,24.447c2.287,2.589,2.043,6.542-0.547,8.83
	C491.89,354.476,490.411,354.992,488.938,354.992z"/>
<path opacity="0.6" fill="#F0A830" d="M314.536,356.25c-40.269-62.622-75.979,0-75.979,0s16.811-17.638,37.229-17.638
	C296.207,338.612,314.536,356.25,314.536,356.25z"/>
<path fill="#5E4230" d="M318.608,354.992c-1.732,0-3.455-0.715-4.69-2.114c-12.203-13.807-24.92-20.648-37.753-20.229
	c-20.754,0.616-35.969,19.74-36.12,19.933c-2.123,2.719-6.053,3.205-8.775,1.083c-2.722-2.121-3.217-6.039-1.102-8.764
	c0.758-0.976,18.847-23.902,45.517-24.754c16.77-0.573,32.798,7.688,47.608,24.447c2.288,2.589,2.045,6.542-0.545,8.83
	C321.558,354.476,320.079,354.992,318.608,354.992z"/>
<path fill="#FFFFFF" d="M375.396,422.628c82.147,0,172.539-12.692,243.084-22.551c-1.249,8.502-0.876,7.46-1.604,12.69
	c-68.452,12.289-166.097,22.697-248.039,22.697c-88.262,0-190.932-11.709-263.16-25.829c-1.002-7.789-0.446-3.274-0.959-12.21
	C182.617,410.009,281.846,422.628,375.396,422.628z"/>
<path opacity="0.4" fill="#F0A830" d="M545.98,413.861c0,3.602-0.061,7.188-0.146,10.768c24.652-3.312,48.395-7.282,71.043-11.861
	c2.196-14.93,3.354-30.24,3.354-45.844c0-44.042-9.098-85.747-25.331-122.996c-27.713-4.977-56.911-9.061-87.251-12.18
	C532.18,286.758,545.98,348.54,545.98,413.861z"/>
<path fill="#F0A830" d="M592.262,248.75c0,0,35.069,85.585,17.953,155.302C610.215,404.052,613.654,289.5,592.262,248.75z"/>
<circle opacity="0.5" fill="#F0A830" cx="222.795" cy="364.889" r="6.472"/>
<circle opacity="0.6" fill="#F0A830" cx="144.835" cy="356.702" r="21.188"/>
<circle opacity="0.6" fill="#F0A830" cx="578.172" cy="356.702" r="21.188"/>
<circle opacity="0.5" fill="#F0A830" cx="503.338" cy="364.706" r="6.473"/>
<path fill="#5E4230" d="M367.454,474.811c0,3.577-2.898,6.47-6.473,6.47l0,0c-3.574,0-6.47-2.893-6.47-6.47v-54.269
	c0-3.574,2.896-6.471,6.47-6.471l0,0c3.574,0,6.473,2.896,6.473,6.471V474.811z"/>
<polyline opacity="0.4" fill="#5E4230" points="218.224,299.363 271.774,272.149 271.774,255.116 309.526,281.806 287.226,281.279 
	218.224,300.067 "/>
<polyline opacity="0.4" fill="#5E4230" points="503.653,299.363 450.1,272.149 450.1,255.116 412.348,281.806 434.646,281.279 
	503.653,300.067 "/>
</svg>
